<svg width="87" height="14" viewBox="0 0 87 14" fill="none" xmlns="http://www.w3.org/2000/svg">
<g clip-path="url(#clip0_6397_7654)">
<mask id="mask0_6397_7654" style="mask-type:luminance" maskUnits="userSpaceOnUse" x="0" y="0" width="87" height="14">
<path d="M0.851562 0.773438H86.9987V13.7698H0.851562V0.773438Z" fill="white"/>
</mask>
<g mask="url(#mask0_6397_7654)">
<path d="M7.90075 3.18704L6.52685 4.00396C6.34118 3.66977 6.08126 3.37271 5.7842 3.14991C5.11582 2.77859 4.2989 2.85285 3.66765 3.33557C3.37059 3.55837 3.18493 3.92969 3.22206 4.33815C3.22206 4.89513 3.63052 5.30359 4.44743 5.63778L5.5614 6.08337C6.34118 6.3433 7.00957 6.82602 7.56655 7.42014C8.01214 7.97712 8.23494 8.64551 8.1978 9.35102C8.23494 10.3165 7.86361 11.2448 7.19523 11.876C6.52685 12.5444 5.5614 12.9157 4.63309 12.8786C3.74192 12.9157 2.88787 12.6187 2.21949 12.0246C1.5511 11.3562 1.14265 10.5021 1.03125 9.61095L2.73934 9.23963C2.77647 9.72235 2.88787 10.2051 3.1478 10.6135C3.81618 11.4304 5.04155 11.579 5.85846 10.9106L5.96986 10.7992C6.30405 10.4279 6.52685 9.94514 6.48971 9.46242C6.48971 9.27676 6.45258 9.05396 6.41545 8.8683C6.34118 8.68264 6.26692 8.49698 6.11839 8.38558C5.96986 8.23705 5.82133 8.08852 5.63567 7.93999C5.41287 7.79146 5.15295 7.68006 4.89302 7.56867L3.85331 7.12308C2.33088 6.49183 1.5511 5.52639 1.5511 4.26388C1.5511 3.44697 1.8853 2.66719 2.51655 2.14734C3.18493 1.55322 4.03898 1.25616 4.93015 1.29329C6.15552 1.33042 7.1581 1.96167 7.90075 3.18704ZM15.6243 8.19992V12.7301H13.9162V1.55322H15.8099C16.5155 1.51609 17.221 1.59035 17.9265 1.73888C18.4092 1.88741 18.8548 2.1102 19.189 2.48153C19.8202 3.11278 20.1916 3.96682 20.1544 4.858C20.1916 5.78631 19.8202 6.67749 19.1147 7.30874C18.335 7.93999 17.3324 8.27418 16.3298 8.23705H15.6243V8.19992ZM15.6243 6.64036H16.2555C17.8151 6.64036 18.5949 6.04624 18.5949 4.858C18.5949 3.7069 17.778 3.11278 16.1813 3.11278H15.6243V6.64036ZM43.3622 7.97712L46.8155 12.7301H44.7361L41.5427 8.16279H41.2457V12.7301H39.5376V1.55322H41.5056C42.9909 1.55322 44.0677 1.81314 44.699 2.37013C45.4045 2.96425 45.8129 3.89256 45.7758 4.82087C45.7758 5.56352 45.553 6.26903 45.1074 6.86315C44.699 7.42014 44.0677 7.82859 43.3622 7.97712ZM41.2457 6.67749H41.7655C43.3622 6.67749 44.1791 6.08337 44.1791 4.858C44.1791 3.7069 43.3993 3.14991 41.8398 3.14991H41.2457V6.67749ZM55.1703 3.11278V12.7301H53.4622V3.11278H50.9001L49.7118 1.51609H58.9207L57.7324 3.11278H55.1703ZM77.0784 12.7301V0.773438L85.2476 9.31389V1.55322H86.9185V13.4356L78.7494 4.89513V12.7301H77.0784ZM70.0975 12.7301H71.9542L66.6071 0.847702L61.0744 12.7301H62.8938L66.6071 4.63521L69.3549 11.022L70.0975 12.7301ZM32.4824 12.7301H34.3019L28.992 0.847702L23.4221 12.7301H25.2416L28.9548 4.63521L31.7026 11.022L32.4824 12.7301Z" fill="white"/>
</g>
</g>
<defs>
<clipPath id="clip0_6397_7654">
<rect width="86.1472" height="12.9963" fill="white" transform="translate(0.851562 0.773438)"/>
</clipPath>
</defs>
</svg>
